<?xml version="1.0" standalone="no"?>
<!DOCTYPE svg PUBLIC "-//W3C//DTD SVG 20010904//EN"
 "http://www.w3.org/TR/2001/REC-SVG-20010904/DTD/svg10.dtd">
<svg version="1.0" xmlns="http://www.w3.org/2000/svg"
 width="612.000000pt" height="612.000000pt" viewBox="0 0 612.000000 612.000000"
 preserveAspectRatio="xMidYMid meet">
<metadata>
Created by potrace 1.14, written by Peter Selinger 2001-2017
</metadata>
<g transform="translate(0.000000,612.000000) scale(0.100000,-0.100000)"
fill="#000000" stroke="none">
<path d="M0 3060 l0 -3060 3060 0 3060 0 0 3060 0 3060 -3060 0 -3060 0 0
-3060z m3291 2516 c195 -57 336 -149 453 -295 134 -166 160 -247 238 -716 56
-341 63 -375 80 -375 58 0 235 -99 317 -177 34 -32 131 -148 131 -155 0 -5
-652 -8 -1450 -8 -797 0 -1450 3 -1450 6 0 26 154 185 226 235 59 40 158 86
204 94 l37 6 61 372 c37 225 71 401 87 446 109 320 383 544 730 595 76 11 252
-4 336 -28z m1521 -1819 c221 -67 437 -213 610 -411 77 -90 158 -201 158 -217
0 -5 -1134 -9 -2520 -9 -2009 0 -2520 3 -2520 13 0 22 133 190 225 283 118
120 234 205 370 270 209 101 32 93 1945 90 1548 -2 1679 -3 1732 -19z m373
-902 c0 -110 -3 -124 -27 -170 -34 -64 -82 -112 -138 -139 l-45 -21 -1915 0
-1915 0 -45 21 c-57 27 -113 83 -141 143 -17 36 -23 70 -27 153 -2 59 -2 114
1 123 6 13 218 15 2129 13 l2123 -3 0 -120z m-421 -473 c7 -12 -39 -100 -65
-122 -13 -11 -41 -29 -61 -40 -37 -20 -60 -20 -1577 -20 -1200 0 -1546 3
-1568 12 -15 7 -41 25 -58 40 -16 16 -33 28 -36 28 -6 0 -49 92 -49 104 0 9
3408 7 3414 -2z m-1436 -682 c3 -129 -6 -180 -32 -180 -18 0 -36 30 -36 59 0
14 -9 23 -27 27 -55 14 -58 6 -63 -225 -4 -174 -8 -213 -20 -221 -42 -27 -51
7 -49 185 0 84 -2 158 -5 163 -3 5 -17 12 -31 15 -44 8 -55 -14 -55 -113 0
-101 -5 -120 -31 -120 -30 0 -41 36 -38 128 3 103 -3 127 -33 129 -33 3 -48
-15 -48 -57 0 -53 -8 -70 -35 -70 -13 0 -26 7 -29 16 -8 22 -8 379 1 388 4 4
124 6 268 4 l260 -3 3 -125z"/>
<path d="M2887 4823 c-4 -3 -7 -23 -7 -44 0 -52 46 -91 103 -87 66 5 76 56 21
111 -20 21 -37 27 -69 27 -23 0 -45 -3 -48 -7z"/>
<path d="M3115 4804 c-57 -61 -44 -109 29 -108 64 0 98 33 94 89 l-3 40 -47 3
c-41 3 -51 -1 -73 -24z"/>
<path d="M2960 4605 c0 -13 15 -15 100 -13 134 4 135 22 3 26 -88 2 -103 0
-103 -13z"/>
<path d="M1538 3607 c-49 -30 -75 -65 -87 -119 -23 -103 49 -204 153 -215 58
-7 106 10 149 53 83 84 69 211 -31 275 -59 37 -129 40 -184 6z m151 -35 c52
-26 75 -63 75 -121 0 -38 -6 -57 -27 -85 -80 -104 -247 -49 -247 82 0 111 101
174 199 124z"/>
<path d="M2262 3613 c-131 -64 -131 -258 0 -322 205 -99 365 189 175 312 -48
32 -123 36 -175 10z m143 -37 c106 -45 98 -210 -12 -252 -117 -45 -229 70
-176 182 35 73 111 102 188 70z"/>
<path d="M2985 3616 c-175 -81 -116 -346 77 -346 51 0 110 31 144 76 37 48 44
133 16 184 -33 60 -84 93 -150 97 -34 2 -69 -2 -87 -11z m137 -42 c53 -25 73
-60 73 -126 0 -49 -4 -61 -29 -87 -74 -77 -193 -58 -232 35 -20 47 -17 80 8
125 36 64 111 86 180 53z"/>
<path d="M3695 3610 c-118 -58 -129 -234 -19 -309 107 -73 264 -2 281 127 19
142 -132 246 -262 182z m156 -43 c145 -96 23 -316 -134 -241 -100 48 -104 199
-6 247 48 23 100 21 140 -6z"/>
<path d="M4412 3609 c-100 -50 -130 -167 -65 -261 97 -143 323 -72 325 102 1
135 -137 220 -260 159z m155 -40 c42 -26 63 -66 63 -119 0 -108 -99 -170 -197
-123 -93 44 -99 189 -10 243 42 26 101 25 144 -1z"/>
</g>
</svg>
